<?xml version="1.0" standalone="yes"?>
<svg xmlns="http://www.w3.org/2000/svg" width="1920" height="972">
<path style="fill:#f8fafb; stroke:none;" d="M0 0L0 972L1920 972L1920 0L0 0z"/>
<path style="fill:#e1e2bc; stroke:none;" d="M639 250L639 251L756 226.997L839 210L839 209L744 206L744 205L880 201L880 198C842.662 198 805.258 198.329 768 199.961C749.873 200.754 729.603 198.5 712 203.904C683.737 212.582 661.805 232.64 639 250M1037 198L1037 201L1170 204L1170 200L1037 198z"/>
<path style="fill:#a3bbcc; stroke:none;" d="M1169 201L1169 203L1206 205C1197.87 201.093 1177.65 198.621 1169 201z"/>
<path style="fill:#e1e2bc; stroke:none;" d="M1175 200L1176 201L1175 200z"/>
<path style="fill:#eadf88; stroke:none;" d="M744 205L744 206L894 209L894 202L1030 202L1030 209L1176 205C1166.22 200.896 1147.76 203 1137 203C1109.66 203 1082.34 202.655 1055 201.985C951.427 199.448 847.394 200.561 744 205z"/>
<path style="fill:#e1e2bc; stroke:none;" d="M1183.67 201.333L1184.33 201.667L1183.67 201.333M894 202L894 209L1030 209L1030 202L894 202M1192.67 202.333L1193.33 202.667L1192.67 202.333M1201 203L1202 204L1201 203z"/>
<path style="fill:#a3bbcc; stroke:none;" d="M1142 204L1151 206L1151 205L1142 204z"/>
<path style="fill:#e1e2bc; stroke:none;" d="M1075 209L1075 210L1130 223.116L1230 247.374L1284 260C1269.98 240.513 1248.02 226.272 1227 215.753C1220.31 212.404 1213.38 206.986 1206 205.39C1188.81 201.674 1168.3 205.726 1151 206.911C1125.92 208.628 1100.12 208.482 1075 209M637 258C636.478 321.073 616.575 383.928 616.571 447C616.567 516.373 631.329 585.719 633 655C639.625 655 643.898 677.334 645 683C649.165 704.419 654.598 725.69 659.333 747C661.605 757.222 666.899 769.691 665 780L666 780L666 778L667 778L666 784L667 784L667 782L668 782L667 788L668 792L669 796L671 796L670 800L672 800C670.931 806.837 674.909 828.467 680.564 833.012C686.736 837.971 703.308 836.4 711 837.169C738.661 839.935 766.291 843.687 794 845.914C813.981 847.52 833.979 851.084 854 851.961C895.159 853.763 936.797 852 978 852C1005.47 852 1033.6 853.786 1061 851.911C1088.62 850.019 1116.54 845.296 1144 841.718C1166.65 838.768 1189.32 835.87 1212 833.155C1219.49 832.258 1234.27 833.238 1240.54 828.988C1243.09 827.259 1243.41 822.73 1244.12 819.985C1246.35 811.356 1250.22 800.938 1249 792L1251 792C1250.46 788.768 1249.1 787.275 1252 788C1251.46 784.737 1249.78 782.196 1253 783C1251.31 772.831 1255.48 760.091 1258 750C1263.53 727.892 1265.52 704.924 1271 683C1272.51 676.942 1276.03 654.507 1282 656L1285.91 611L1295.09 491L1298.92 445L1286 264L1285 264C1285 312.619 1287.42 361.39 1288 410C1288.13 421.663 1288 433.336 1288 445C1288 448.536 1289.11 454.513 1285.68 456.822C1281.63 459.553 1273.75 459.1 1269 459.718C1262.04 460.625 1250.76 464.338 1244 462.307C1232.5 458.854 1220.4 439.4 1212 431C1182.2 401.189 1153.18 370.46 1124.04 340C1111.11 326.48 1097.71 306.702 1081.99 296.603C1077.45 293.687 1070.17 295 1065 295L1027 295L896 295L861 295C856.41 295 849.573 293.741 845.424 296.013C838.994 299.534 834.102 306.89 829 312C813.685 327.339 799.401 347.192 782 360C782.363 348.828 795.01 342.504 801 334C794.224 338.773 785.014 346.665 780.983 354C776.666 361.856 777.791 367.821 769.714 374.682C766.088 377.763 762.201 376.242 758.015 377.318C752.948 378.62 743.856 386.988 743 392C734.009 396.222 717.17 412.676 714 422L715 422L727 409C726.991 423.285 712.649 435.413 702 444L708 427C698.956 433.505 692.662 443.296 684.907 451.05C680.953 455.003 674.525 458.462 672.618 464C670.533 470.057 673.225 480.636 673.83 487C675.254 501.956 675.406 517.036 676.83 532C681.453 580.576 686 631.209 686 680L643 671C642.943 584.745 623.17 499.442 629.089 413C631.502 377.768 631.825 342.145 635.17 307C636.215 296.014 636.557 285.025 637.039 274C637.272 268.682 639.135 263.089 637 258z"/>
<path style="fill:#a3bbcc; stroke:none;" d="M756 377C766.214 377 773.875 375.223 778.972 365C781.307 360.317 779.386 356.321 783.204 351.961C799.676 333.143 824.468 316.68 837 295C827.875 297.583 820.208 310.221 813.83 316.961C795.245 336.601 771.586 354.875 756 377z"/>
<path style="fill:#e1e2bc; stroke:none;" d="M837 295L838 296L837 295M836 296L837 297L836 296M835 297L836 298L835 297M829 300L830 301L829 300M828 301L829 302L828 301M827 302L828 303L827 302M826 303L827 304L826 303M825 304L826 305L825 304M824 305L825 306L824 305M823 306L824 307L823 306M827 306L828 307L827 306M822 307L823 308L822 307M826 307L827 308L826 307M825 308L826 309L825 308M824 309L825 310L824 309M823 310L824 311L823 310M822 311L823 312L822 311M820 313L821 314L820 313M819 314L820 315L819 314M815 315L816 316L815 315M818 315L819 316L818 315M814 316L815 317L814 316M817 316L818 317L817 316M813 317L814 318L813 317M816 317L817 318L816 317M812 318L813 319L812 318M815 318L816 319L815 318M811 319L812 320L811 319M814 319L815 320L814 319M810 320L811 321L810 320M813 320L814 321L813 320M812 321L813 322L812 321M811 322L812 323L811 322M810 323L811 324L810 323M809 324L810 325L809 324M808 325L809 326L808 325M802 328L803 329L802 328M801 329L802 330L801 329M800 330L801 331L800 330M799 331L800 332L799 331M798 332L799 333L798 332M797 333L798 334L797 333M796 334L797 335L796 334M795 335L796 336L795 335M788 343L789 344L788 343M787 344L788 345L787 344M786 345L787 346L786 345M785 346L786 347L785 346M784 347L785 348L784 347M783 348L784 349L783 348M775 356L776 357L775 356M774 357L775 358L774 357M773 358L774 359L773 358M772 359L773 360L772 359M771 360L772 361L771 360M770 361L771 362L770 361M769 362L770 363L769 362z"/>
<path style="fill:#a3bbcc; stroke:none;" d="M755 377L756 378L755 377M754 378L755 379L754 378M753 379L754 380L753 379M752 380L749 385L752 380M748 385L743 391C746.359 391 745 396.203 745 399L747 399L748 385M742 391L743 392L742 391M735 398L736 399L735 398M728 405L729 406L728 405M727 406L728 407L727 406M726 407L727 408L726 407M725 408L726 409L725 408M724 409L725 410L724 409z"/>
<path style="fill:#f8fafb; stroke:none;" d="M726 409C717.987 417.013 714.418 421.78 713 433C720.505 427.714 730.244 419.113 726 409z"/>
<path style="fill:#a3bbcc; stroke:none;" d="M723 410L724 411L723 410M722 411L723 412L722 411M713 421C705.772 428.553 704.348 434.25 702 444C709.518 439.987 716.627 429.724 713 421z"/>
<path style="fill:#e1e2bc; stroke:none;" d="M713.333 428.667L713.667 429.333L713.333 428.667z"/>
<path style="fill:#a3bbcc; stroke:none;" d="M701 433L702 434L701 433M700 434L701 435L700 434M699 435L700 436L699 435M698 436L699 437L698 436M697 437L698 438L697 437M696 438L697 439L696 438M695 439L696 440L695 439M694 441L689 447L694 441M1095 443L1095 447L1096 447L1097 445L1104 452L1095 443z"/>
<path style="fill:#6a889f; stroke:none;" d="M1096 445L1102 485L1103 485L1104 460C1116.62 471.023 1110.31 492.732 1113.39 507C1118.48 530.567 1135.73 553.738 1145 576L1146 576C1146 539.798 1140.38 507.471 1121.4 476C1114.78 465.026 1106.58 452.46 1096 445z"/>
<path style="fill:#a3bbcc; stroke:none;" d="M688 447L689 448L688 447M827 447C822.312 451.888 815.027 458.13 814 465L811 466L806 479L794 504L787 514L788 517C779.966 523.49 780.001 547.352 780 557C779.997 599.576 792.919 631.225 815 667L816 667C819.201 645.243 828.386 623.167 834.421 602C837.491 591.233 842.52 581.104 839 570L847 574L848 574L854 568L854 567L846 562L851.603 540L841.756 522L829.004 486L827 447M687 448L688 449L687 448z"/>
<path style="fill:#f8fafb; stroke:none;" d="M857 451C859.182 464.981 871.557 461.126 877 470C888.031 466.145 888.549 456.235 877.996 450.417C870.949 446.532 864.022 448.296 857 451M1046 470L1047 466C1057.45 465.777 1063.66 460.791 1067 451C1059.59 448.148 1052.23 446.458 1045 450.995C1035.48 456.968 1034.46 466.573 1046 470z"/>
<path style="fill:#a3bbcc; stroke:none;" d="M686 449L687 450L686 449M685 450L686 451L685 450M684 451L685 452L684 451M1096 451C1096 506.374 1073.73 549.531 1025 578L1041.92 677L1049 717C1089.62 699.998 1122.06 660.621 1136.95 620C1141.31 608.092 1147.42 590.849 1145.77 578C1145.06 572.433 1141.2 567.094 1139 562C1131.06 543.637 1116.52 523.726 1113 504L1112 504C1111.93 512.543 1109.76 519.584 1104 526C1098.91 512.045 1104 495.513 1104 481L1103 481L1103 485L1102 485L1097.21 471L1096 451M683 452L684 453L683 452M1066 452L1058.79 465.17L1063 482C1071.06 477.804 1073.93 470.74 1074 462L1073 462L1072 464L1070 457L1072 458L1066 452M682 453L683 454L682 453M853 476C858.079 469.21 859.088 460.912 857 453C848.298 457.521 849.029 468.424 853 476M681 454L682 455L681 454z"/>
<path style="fill:#e1e2bc; stroke:none;" d="M857.333 454.667L857.667 455.333L857.333 454.667z"/>
<path style="fill:#a3bbcc; stroke:none;" d="M1105 454L1106 455L1105 454z"/>
<path style="fill:#6a889f; stroke:none;" d="M1069.33 455.667L1069.67 456.333L1069.33 455.667z"/>
<path style="fill:#a3bbcc; stroke:none;" d="M1106 455L1107 456L1106 455M1107 456L1108 457L1107 456z"/>
<path style="fill:#6a889f; stroke:none;" d="M819 457L818 460L819 457z"/>
<path style="fill:#e1e2bc; stroke:none;" d="M858 457L859 458L858 457M1064 457L1065 458L1064 457z"/>
<path style="fill:#6a889f; stroke:none;" d="M1070 457L1072 464L1073 464L1070 457z"/>
<path style="fill:#a3bbcc; stroke:none;" d="M1108 457L1109 458L1108 457z"/>
<path style="fill:#e1e2bc; stroke:none;" d="M1063 459L1064 460L1063 459z"/>
<path style="fill:#a3bbcc; stroke:none;" d="M1072.33 459.667L1072.67 460.333L1072.33 459.667z"/>
<path style="fill:#e1e2bc; stroke:none;" d="M1062 460L1063 461L1062 460z"/>
<path style="fill:#a3bbcc; stroke:none;" d="M1104 460L1104 470L1109 472L1110 472L1106 460L1104 460M1110 460L1111 461L1110 460z"/>
<path style="fill:#e1e2bc; stroke:none;" d="M1061 461L1062 462L1061 461z"/>
<path style="fill:#a3bbcc; stroke:none;" d="M1111 461L1112 462L1111 461z"/>
<path style="fill:#e1e2bc; stroke:none;" d="M1060 462L1061 463L1060 462z"/>
<path style="fill:#a3bbcc; stroke:none;" d="M1112 462L1113 463L1112 462M1240 462L1229.96 621L1227 665L1227 680L1228 680C1230.2 628.792 1232.28 575.893 1238.29 525C1240.01 510.406 1239.78 495.62 1241.17 481C1241.73 475.076 1243.83 467.056 1240 462z"/>
<path style="fill:#e1e2bc; stroke:none;" d="M1058 463L1059 464L1058 463z"/>
<path style="fill:#6a889f; stroke:none;" d="M813 464L814 465L813 464z"/>
<path style="fill:#a3bbcc; stroke:none;" d="M1113 464L1114 465L1113 464z"/>
<path style="fill:#e1e2bc; stroke:none;" d="M885 465L883 468L885 465z"/>
<path style="fill:#a3bbcc; stroke:none;" d="M886 465L878 481C883.944 478.203 888.769 471.664 886 465M1114 465L1115 466L1114 465z"/>
<path style="fill:#6a889f; stroke:none;" d="M812 466L813 467L812 466z"/>
<path style="fill:#a3bbcc; stroke:none;" d="M1115 466L1116 467L1115 466z"/>
<path style="fill:#6a889f; stroke:none;" d="M811 467C801.62 480.916 790.533 498.089 788 515L789 515L805.247 482L811 467z"/>
<path style="fill:#a3bbcc; stroke:none;" d="M1047 467L1046 471L1049 471L1047 467M875 468L877 471L875 468z"/>
<path style="fill:#e1e2bc; stroke:none;" d="M876.333 468.667L876.667 469.333L876.333 468.667M881 468L882 469L881 468z"/>
<path style="fill:#a3bbcc; stroke:none;" d="M1116 468L1117 469L1116 468M809 469L810 470L809 469M1037 469L1037 472L1038 472L1037 469M1117 469L1118 470L1117 469M808 470L809 471L808 470z"/>
<path style="fill:#e1e2bc; stroke:none;" d="M815 470C812.903 484.263 804.177 517.26 821 526C825.199 508.362 820 487.996 820 470L815 470M1104 470C1104 486.051 1096.98 511.409 1104 526C1115.38 517.063 1112.8 497.748 1111.91 485C1111.49 478.936 1111.19 470.573 1104 470z"/>
<path style="fill:#a3bbcc; stroke:none;" d="M1118 471L1119 472L1118 471M807 472L808 473L807 472M1119 472L1120 473L1119 472M1038.33 473.667L1038.67 474.333L1038.33 473.667M1110 473L1110 477L1111 477L1110 473M1120 474L1121 475L1120 474M805 475L806 476L805 475M1121.33 475.667L1121.67 476.333L1121.33 475.667M804 477L805 478L804 477M1122 477L1123 478L1122 477M803 478L804 479L803 478M1111 478L1111 482L1112 482L1111 478M1123 479L1124 480L1123 479M802 480L803 481L802 480M1124 481L1125 482L1124 481M801 482L802 483L801 482M1125 482L1126 483L1125 482M800 484L801 485L800 484M1126 484L1127 485L1126 484M1112 485L1112 498L1113 498L1112 485M1127 486L1128 487L1127 486M798 487L799 488L798 487M1128 488L1129 489L1128 488M797 489L798 490L797 489M1129 490L1130 491L1129 490M796 491L797 492L796 491M1130 492L1131 493L1130 492M795 494L796 495L795 494M1131 494L1132 495L1131 494M794 496L795 497L794 496M1132.33 496.667L1132.67 497.333L1132.33 496.667M793 498L794 499L793 498M1133 499L1134 500L1133 499M792 500L793 501L792 500M1134 501L1135 502L1134 501M791 503L792 504L791 503M1135.33 503.667L1135.67 504.333L1135.33 503.667M790.333 505.667L790.667 506.333L790.333 505.667M1136.33 506.667L1136.67 507.333L1136.33 506.667M789 508L790 509L789 508M1137 509L1138 510L1137 509M788 511L789 512L788 511M1138 512L1139 513L1138 512z"/>
<path style="fill:#6a889f; stroke:none;" d="M787.333 515.667L787.667 516.333L787.333 515.667z"/>
<path style="fill:#a3bbcc; stroke:none;" d="M1139.33 515.667L1139.67 516.333L1139.33 515.667M1140.33 518.667L1140.67 519.333L1140.33 518.667M1141.33 522.667L1141.67 523.333L1141.33 522.667M1142 526L1142 529L1143 529L1142 526M1143 530L1143 534L1144 534L1143 530M1144 535L1144 540L1145 540L1144 535M1145 542L1145 548L1146 548L1145 542M1146 555L1146 572L1147 572L1146 555z"/>
<path style="fill:#6a889f; stroke:none;" d="M839 567L845 561C840.107 560.359 839.153 562.388 839 567M1080 561L1085 566C1084.7 562.201 1084.02 560.384 1080 561z"/>
<path style="fill:#e1e2bc; stroke:none;" d="M1046 608L1050 611L1057 608L1057 607L1047 608C1053.25 593.51 1066.21 581.728 1079 573C1076.4 571.247 1073.38 567.791 1070 568.327C1066.1 568.946 1062.8 573.26 1060 575.715C1052.02 582.714 1036.06 594.324 1035.27 605.985C1034.81 612.786 1043.73 613.659 1046 608M1082 570L1083 571L1082 570z"/>
<path style="fill:#f8fafb; stroke:none;" d="M1083 570C1069 578.597 1051.87 591.451 1047 608C1060.85 610.448 1072.16 595.732 1078.38 585C1080.8 580.842 1084.43 574.844 1083 570z"/>
<path style="fill:#e1e2bc; stroke:none;" d="M1084 570L1085 571L1084 570M1080 571L1081 572L1080 571M1083.33 573.667L1083.67 574.333L1083.33 573.667M1082 576L1083 577L1082 576M1081.33 578.667L1081.67 579.333L1081.33 578.667M1080 581L1081 582L1080 581M1079 583L1080 584L1079 583M1078 584L1079 585L1078 584M1077 586L1078 587L1077 586M1076 588L1077 589L1076 588M1075 589L1076 590L1075 589M1074 591L1075 592L1074 591M1073 592L1074 593L1073 592M1072 593L1073 594L1072 593M1071 594L1072 595L1071 594M1070 596L1071 597L1070 596M1069 597L1070 598L1069 597M1068 598L1069 599L1068 598M1067 599L1068 600L1067 599M1066 600L1067 601L1066 600M1065 601L1066 602L1065 601M1063 602L1064 603L1063 602M1062 603L1063 604L1062 603M1061 604L1062 605L1061 604M1059 605L1060 606L1059 605z"/>
<path style="fill:#a3bbcc; stroke:none;" d="M888 606L883 612C886.582 611.416 889.033 609.883 888 606z"/>
<path style="fill:#e1e2bc; stroke:none;" d="M1058 606L1059 607L1058 606z"/>
<path style="fill:#eadf88; stroke:none;" d="M872 609L872 610L879 612L878 608L872 609M1046 608L1045 612L1050 611L1046 608z"/>
<path style="fill:#e1e2bc; stroke:none;" d="M1046 611L1046 612L1049 612L1046 611z"/>
<path style="fill:#a3bbcc; stroke:none;" d="M930 630C937.887 626.716 940.993 624.749 941 616C931.863 616.419 924.746 620.573 930 630M986 616C986.001 623.37 986.522 627.248 994 630C998.543 621.758 993.838 618.275 986 616z"/>
<path style="fill:#eadf88; stroke:none;" d="M944 636L944 637C953.459 641.017 969.856 642.514 979 637L944 636z"/>
<path style="fill:#a3bbcc; stroke:none;" d="M633 652L634 653L633 652M1281 653L1282 654L1281 653M634 654L665 778L666 778C664.828 751.119 653.894 722.33 648.21 696C645.21 682.103 643.358 665.294 634 654M1280 655C1269.82 679.455 1266.22 704.944 1261.2 731C1258.06 747.256 1252.71 764.461 1252 781L1253 781C1256.84 751.251 1266.16 721.244 1272.88 692C1275.1 682.358 1282.87 664.438 1280 655z"/>
<path style="fill:#e1e2bc; stroke:none;" d="M634.333 657.667L634.667 658.333L634.333 657.667M1280.33 658.667L1280.67 659.333L1280.33 658.667M635.333 661.667L635.667 662.333L635.333 661.667M1279.33 662.667L1279.67 663.333L1279.33 662.667M636.333 665.667L636.667 666.333L636.333 665.667M1278.33 667.667L1278.67 668.333L1278.33 667.667M637.333 669.667L637.667 670.333L637.333 669.667M1277.33 671.667L1277.67 672.333L1277.33 671.667M638.333 673.667L638.667 674.333L638.333 673.667M639 676L639 679L640 679L639 676M1276.33 676.667L1276.67 677.333L1276.33 676.667M640 680L640 683L641 683L640 680z"/>
<path style="fill:#f8fafb; stroke:none;" d="M686 680L687 681L686 680z"/>
<path style="fill:#e1e2bc; stroke:none;" d="M1275.33 680.667L1275.67 681.333L1275.33 680.667M641.333 684.667L641.667 685.333L641.333 684.667M1274.33 684.667L1274.67 685.333L1274.33 684.667M642.333 688.667L642.667 689.333L642.333 688.667M1273.33 689.667L1273.67 690.333L1273.33 689.667M643.333 692.667L643.667 693.333L643.333 692.667M1272.33 693.667L1272.67 694.333L1272.33 693.667M644.333 696.667L644.667 697.333L644.333 696.667M1271.33 698.667L1271.67 699.333L1271.33 698.667M645.333 700.667L645.667 701.333L645.333 700.667M1270.33 702.667L1270.67 703.333L1270.33 702.667M646.333 704.667L646.667 705.333L646.333 704.667M1269.33 706.667L1269.67 707.333L1269.33 706.667M647.333 708.667L647.667 709.333L647.333 708.667M1268.33 711.667L1268.67 712.333L1268.33 711.667M648.333 712.667L648.667 713.333L648.333 712.667M1267.33 715.667L1267.67 716.333L1267.33 715.667M649.333 716.667L649.667 717.333L649.333 716.667M650 719L650 722L651 722L650 719M1266.33 720.667L1266.67 721.333L1266.33 720.667M651 723L651 726L652 726L651 723M1265.33 724.667L1265.67 725.333L1265.33 724.667M652.333 727.667L652.667 728.333L652.333 727.667M1264.33 728.667L1264.67 729.333L1264.33 728.667M653.333 731.667L653.667 732.333L653.333 731.667M1263.33 733.667L1263.67 734.333L1263.33 733.667M654.333 735.667L654.667 736.333L654.333 735.667M1262.33 737.667L1262.67 738.333L1262.33 737.667M655.333 739.667L655.667 740.333L655.333 739.667M1261.33 742.667L1261.67 743.333L1261.33 742.667M656.333 743.667L656.667 744.333L656.333 743.667M1260.33 746.667L1260.67 747.333L1260.33 746.667M657.333 747.667L657.667 748.333L657.333 747.667M1259.33 750.667L1259.67 751.333L1259.33 750.667M658.333 751.667L658.667 752.333L658.333 751.667M659.333 755.667L659.667 756.333L659.333 755.667M1258.33 755.667L1258.67 756.333L1258.33 755.667M660.333 759.667L660.667 760.333L660.333 759.667M1257.33 759.667L1257.67 760.333L1257.33 759.667M661 762L661 765L662 765L661 762M1256.33 764.667L1256.67 765.333L1256.33 764.667M662 766L662 769L663 769L662 766M1255.33 768.667L1255.67 769.333L1255.33 768.667M663.333 770.667L663.667 771.333L663.333 770.667M1254.33 772.667L1254.67 773.333L1254.33 772.667M664.333 774.667L664.667 775.333L664.333 774.667M1253.33 777.667L1253.67 778.333L1253.33 777.667z"/>
<path style="fill:#a3bbcc; stroke:none;" d="M666 778L666 782L667 782L666 778M667 782L667 786L668 786L667 782M1251 782L1251 786L1252 786L1251 782M668 787L668 790L669 790L668 787M1250 787L1250 790L1251 790L1250 787M669 791L669 794L670 794L669 791M1249.33 792.667L1249.67 793.333L1249.33 792.667M670.333 796.667L670.667 797.333L670.333 796.667M1248.33 797.667L1248.67 798.333L1248.33 797.667M671.333 800.667L671.667 801.333L671.333 800.667z"/>
</svg>
